<?xml version="1.0"?>
<svg xmlns="http://www.w3.org/2000/svg" xmlns:xlink="http://www.w3.org/1999/xlink" xmlns:svgjs="http://svgjs.com/svgjs" version="1.1" width="512" height="512" x="0" y="0" viewBox="0 0 64 64" style="enable-background:new 0 0 512 512" xml:space="preserve" class=""><g><path xmlns="http://www.w3.org/2000/svg" d="m13 37v22c0 1.66-1.34 3-3 3-.83 0-1.58-.34-2.12-.88s-.88-1.29-.88-2.12v-19-3z" fill="#575558" data-original="#838f9b" style="" class=""/><path xmlns="http://www.w3.org/2000/svg" d="m19 40v19c0 .83-.34 1.58-.88 2.12s-1.29.88-2.12.88c-1.66 0-3-1.34-3-3v-22h6z" fill="#575558" data-original="#838f9b" style="" class=""/><path xmlns="http://www.w3.org/2000/svg" d="m19 37h-6-6v3h-1c-2.21 0-4-1.79-4-4v-9c0-5.74 4.39-10.45 9.99-10.95l-1.99 7.95 3 4 3-4-1.99-7.95c2.63.23 5 1.4 6.77 3.17 1.99 1.99 3.22 4.74 3.22 7.78v9c0 2.21-1.79 4-4 4h-1z" fill="#d16200" data-original="#fcd770" style="" class=""/><path xmlns="http://www.w3.org/2000/svg" d="m14.01 16.05 1.99 7.95-3 4-3-4 1.99-7.95c.34-.03.67-.05 1.01-.05s.67.02 1.01.05z" fill="#af1900" data-original="#5cd6b3" style="" class=""/><circle xmlns="http://www.w3.org/2000/svg" cx="13" cy="9" fill="#f0d0b4" r="7" data-original="#f0d0b4" style="" class=""/><path xmlns="http://www.w3.org/2000/svg" d="m33 2 7 8h-3v3 2 2h-8v-7h-3z" fill="#b53300" data-original="#ffeaa7" style="" class=""/><path xmlns="http://www.w3.org/2000/svg" d="m53 2 7 8h-3v3 2 2h-8v-7h-3z" fill="#b53300" data-original="#ffeaa7" style="" class=""/><path xmlns="http://www.w3.org/2000/svg" d="m60 54-7 8-7-8h3v-7h8v2 2 3z" fill="#b53300" data-original="#ffeaa7" style="" class=""/><path xmlns="http://www.w3.org/2000/svg" d="m40 54-7 8-7-8h3v-7h8v2 2 3z" fill="#b53300" data-original="#ffeaa7" style="" class=""/><path xmlns="http://www.w3.org/2000/svg" d="m60 44h-34c-1.105 0-2-.895-2-2v-20c0-1.105.895-2 2-2h34c1.105 0 2 .895 2 2v20c0 1.105-.895 2-2 2z" fill="#e6e9ed" data-original="#e6e9ed" style="" class=""/><g xmlns="http://www.w3.org/2000/svg" fill="#5cd6b3"><path d="m57 26v4h-2-2v-4h2z" fill="#af1900" data-original="#5cd6b3" style="" class=""/><path d="m49 34v4h-2-2v-4h2z" fill="#af1900" data-original="#5cd6b3" style="" class=""/><path d="m41 28v4h-2-2v-4h2z" fill="#af1900" data-original="#5cd6b3" style="" class=""/><path d="m33 30v4h-2-2v-4h2z" fill="#af1900" data-original="#5cd6b3" style="" class=""/></g><path xmlns="http://www.w3.org/2000/svg" d="m32 23h-2v6h-2v6h2v6h2v-6h2v-6h-2zm0 10h-2v-2h2z" fill="#000000" data-original="#000000" style=""/><path xmlns="http://www.w3.org/2000/svg" d="m40 23h-2v4h-2v6h2v8h2v-8h2v-6h-2zm0 8h-2v-2h2z" fill="#000000" data-original="#000000" style=""/><path xmlns="http://www.w3.org/2000/svg" d="m48 23h-2v10h-2v6h2v2h2v-2h2v-6h-2zm0 14h-2v-2h2z" fill="#000000" data-original="#000000" style=""/><path xmlns="http://www.w3.org/2000/svg" d="m56 23h-2v2h-2v6h2v10h2v-10h2v-6h-2zm0 6h-2v-2h2z" fill="#000000" data-original="#000000" style=""/><path xmlns="http://www.w3.org/2000/svg" d="m60 19h-34c-1.227 0-2.281.742-2.746 1.8-1.385-2.282-3.503-4.063-6.031-5.018 2.263-1.415 3.777-3.922 3.777-6.782 0-4.411-3.589-8-8-8s-8 3.589-8 8c0 2.86 1.514 5.367 3.777 6.782-4.536 1.714-7.777 6.089-7.777 11.218v9c0 2.757 2.243 5 5 5v18c0 2.206 1.794 4 4 4 1.2 0 2.266-.542 3-1.382.734.84 1.8 1.382 3 1.382 2.206 0 4-1.794 4-4v-18c1.13 0 2.162-.391 3-1.026v2.026c0 1.654 1.346 3 3 3h34c1.654 0 3-1.346 3-3v-20c0-1.654-1.346-3-3-3zm-45.085 4.781-1.915 2.552-1.915-2.553 1.693-6.77c.075 0 .147-.01.222-.01s.147.01.222.011zm-7.915-14.781c0-3.309 2.691-6 6-6s6 2.691 6 6-2.691 6-6 6-6-2.691-6-6zm3 52c-1.103 0-2-.897-2-2v-21h4v21c0 1.103-.897 2-2 2zm6 0c-1.103 0-2-.897-2-2v-21h4v21c0 1.103-.897 2-2 2zm4-22v-14h-2v11h-10v-11h-2v14c-1.654 0-3-1.346-3-3v-9c0-4.702 3.266-8.646 7.646-9.709l-1.732 6.928 4.086 5.448 4.085-5.447-1.732-6.928c4.381 1.062 7.647 5.006 7.647 9.708v9c0 1.654-1.346 3-3 3zm41 3c0 .551-.449 1-1 1h-34c-.551 0-1-.449-1-1v-6-9-5c0-.551.449-1 1-1h34c.551 0 1 .449 1 1z" fill="#000000" data-original="#000000" style=""/><path xmlns="http://www.w3.org/2000/svg" d="m48 17h2v-8h-1.796l4.796-5.481 4.796 5.481h-1.796v4h2v-2h4.204l-9.204-10.519-9.204 10.519h4.204z" fill="#000000" data-original="#000000" style=""/><path xmlns="http://www.w3.org/2000/svg" d="m56 15h2v2h-2z" fill="#000000" data-original="#000000" style=""/><path xmlns="http://www.w3.org/2000/svg" d="m28 17h2v-8h-1.796l4.796-5.481 4.796 5.481h-1.796v4h2v-2h4.204l-9.204-10.519-9.204 10.519h4.204z" fill="#000000" data-original="#000000" style=""/><path xmlns="http://www.w3.org/2000/svg" d="m36 15h2v2h-2z" fill="#000000" data-original="#000000" style=""/><path xmlns="http://www.w3.org/2000/svg" d="m58 51h-2v4h1.796l-4.796 5.481-4.796-5.481h1.796v-8h-2v6h-4.204l9.204 10.519 9.204-10.519h-4.204z" fill="#000000" data-original="#000000" style=""/><path xmlns="http://www.w3.org/2000/svg" d="m56 47h2v2h-2z" fill="#000000" data-original="#000000" style=""/><path xmlns="http://www.w3.org/2000/svg" d="m38 51h-2v4h1.796l-4.796 5.481-4.796-5.481h1.796v-8h-2v6h-4.204l9.204 10.519 9.204-10.519h-4.204z" fill="#000000" data-original="#000000" style=""/><path xmlns="http://www.w3.org/2000/svg" d="m36 47h2v2h-2z" fill="#000000" data-original="#000000" style=""/></g></svg>
