<?xml version="1.0"?>
<svg xmlns="http://www.w3.org/2000/svg" xmlns:xlink="http://www.w3.org/1999/xlink" xmlns:svgjs="http://svgjs.com/svgjs" version="1.1" width="512" height="512" x="0" y="0" viewBox="0 0 64 64" style="enable-background:new 0 0 512 512" xml:space="preserve" class=""><g><rect xmlns="http://www.w3.org/2000/svg" x="56" y="39" width="4" height="10" fill="#d32e5e" data-original="#d32e5e" style=""/><path xmlns="http://www.w3.org/2000/svg" d="M60,49.5H56a.5.5,0,0,1-.5-.5V39a.5.5,0,0,1,.5-.5h4a.5.5,0,0,1,.5.5V49A.5.5,0,0,1,60,49.5Zm-3.5-1h3v-9h-3Z" fill="#212a41" data-original="#212a41" style=""/><path xmlns="http://www.w3.org/2000/svg" d="M26,26V23a6,6,0,0,0-6-6H10a6,6,0,0,0-6,6V36H8V30H30.5V26Z" fill="#0079a8" data-original="#0079a8" style=""/><path xmlns="http://www.w3.org/2000/svg" d="M8,36.5H4a.5.5,0,0,1-.5-.5V23A6.508,6.508,0,0,1,10,16.5H20A6.508,6.508,0,0,1,26.5,23v2.5h4a.5.5,0,0,1,.5.5v4a.5.5,0,0,1-.5.5H8.5V36A.5.5,0,0,1,8,36.5Zm-3.5-1h3V30a.5.5,0,0,1,.5-.5H30v-3H26a.5.5,0,0,1-.5-.5V23A5.506,5.506,0,0,0,20,17.5H10A5.506,5.506,0,0,0,4.5,23Z" fill="#212a41" data-original="#212a41" style=""/><polygon xmlns="http://www.w3.org/2000/svg" points="15 24 12 17 18 17 15 24" fill="#e0e0e0" data-original="#e0e0e0" style=""/><path xmlns="http://www.w3.org/2000/svg" d="M15,24.5a.5.5,0,0,1-.459-.3l-3-7A.5.5,0,0,1,12,16.5h6a.5.5,0,0,1,.459.7l-3,7A.5.5,0,0,1,15,24.5Zm-2.242-7L15,22.73l2.242-5.23Z" fill="#212a41" data-original="#212a41" style=""/><rect xmlns="http://www.w3.org/2000/svg" x="10" y="5" width="10" height="12" rx="4" ry="4" fill="#e0c8a4" data-original="#e0c8a4" style=""/><path xmlns="http://www.w3.org/2000/svg" d="M16,17.5H14A4.505,4.505,0,0,1,9.5,13V9A4.505,4.505,0,0,1,14,4.5h2A4.505,4.505,0,0,1,20.5,9v4A4.505,4.505,0,0,1,16,17.5Zm-2-12A3.5,3.5,0,0,0,10.5,9v4A3.5,3.5,0,0,0,14,16.5h2A3.5,3.5,0,0,0,19.5,13V9A3.5,3.5,0,0,0,16,5.5Z" fill="#212a41" data-original="#212a41" style=""/><path xmlns="http://www.w3.org/2000/svg" d="M22,30.5a.5.5,0,0,1-.5-.5V23a.5.5,0,0,1,1,0v7A.5.5,0,0,1,22,30.5Z" fill="#212a41" data-original="#212a41" style=""/><path xmlns="http://www.w3.org/2000/svg" d="M15,30.5a.5.5,0,0,1-.5-.5V24a.5.5,0,0,1,1,0v6A.5.5,0,0,1,15,30.5Z" fill="#212a41" data-original="#212a41" style=""/><path xmlns="http://www.w3.org/2000/svg" d="M14,5v5a2,2,0,0,1-2,2H10V7a2,2,0,0,1,2-2Z" fill="#4e4b51" data-original="#4e4b51" style=""/><path xmlns="http://www.w3.org/2000/svg" d="M12,12.5H10a.5.5,0,0,1-.5-.5V7A2.5,2.5,0,0,1,12,4.5h2a.5.5,0,0,1,.5.5v5A2.5,2.5,0,0,1,12,12.5Zm-1.5-1H12A1.5,1.5,0,0,0,13.5,10V5.5H12A1.5,1.5,0,0,0,10.5,7Z" fill="#212a41" data-original="#212a41" style=""/><path xmlns="http://www.w3.org/2000/svg" d="M21,4V7a2,2,0,0,1-2,2H12V6a2,2,0,0,1,2-2Z" fill="#6c696f" data-original="#6c696f" style=""/><path xmlns="http://www.w3.org/2000/svg" d="M19,9.5H12a.5.5,0,0,1-.5-.5V6A2.5,2.5,0,0,1,14,3.5h7a.5.5,0,0,1,.5.5V7A2.5,2.5,0,0,1,19,9.5Zm-6.5-1H19A1.5,1.5,0,0,0,20.5,7V4.5H14A1.5,1.5,0,0,0,12.5,6Z" fill="#212a41" data-original="#212a41" style=""/><path xmlns="http://www.w3.org/2000/svg" d="M15,24.5a.5.5,0,0,1-.459-.7l3-7a.5.5,0,0,1,.875-.08l2,3a.5.5,0,0,1-.1.668l-5,4A.5.5,0,0,1,15,24.5Zm3.1-6.455-1.85,4.318L19.33,19.9Z" fill="#212a41" data-original="#212a41" style=""/><path xmlns="http://www.w3.org/2000/svg" d="M15,24.5a.5.5,0,0,1-.312-.109l-5-4a.5.5,0,0,1-.1-.668l2-3a.511.511,0,0,1,.462-.221.5.5,0,0,1,.413.3l3,7a.5.5,0,0,1-.459.7Zm-4.33-4.6,3.084,2.467L11.9,18.045Z" fill="#212a41" data-original="#212a41" style=""/><path xmlns="http://www.w3.org/2000/svg" d="M38,26V23a6,6,0,0,1,6-6H54a6,6,0,0,1,6,6V36H56V30H33.5V26Z" fill="#f9ac2f" data-original="#f9ac2f" style=""/><path xmlns="http://www.w3.org/2000/svg" d="M60,36.5H56a.5.5,0,0,1-.5-.5V30.5h-22A.5.5,0,0,1,33,30V26a.5.5,0,0,1,.5-.5h4V23A6.508,6.508,0,0,1,44,16.5H54A6.508,6.508,0,0,1,60.5,23V36A.5.5,0,0,1,60,36.5Zm-3.5-1h3V23A5.506,5.506,0,0,0,54,17.5H44A5.506,5.506,0,0,0,38.5,23v3a.5.5,0,0,1-.5.5H34v3H56a.5.5,0,0,1,.5.5Z" fill="#212a41" data-original="#212a41" style=""/><polygon xmlns="http://www.w3.org/2000/svg" points="49 24 52 17 46 17 49 24" fill="#e0e0e0" data-original="#e0e0e0" style=""/><path xmlns="http://www.w3.org/2000/svg" d="M49,24.5a.5.5,0,0,1-.459-.3l-3-7A.5.5,0,0,1,46,16.5h6a.5.5,0,0,1,.459.7l-3,7A.5.5,0,0,1,49,24.5Zm-2.242-7L49,22.73l2.242-5.23Z" fill="#212a41" data-original="#212a41" style=""/><rect xmlns="http://www.w3.org/2000/svg" x="44" y="5" width="10" height="12" rx="4" ry="4" transform="translate(98 22) rotate(-180)" fill="#e0c8a4" data-original="#e0c8a4" style=""/><path xmlns="http://www.w3.org/2000/svg" d="M50,17.5H48A4.505,4.505,0,0,1,43.5,13V9A4.505,4.505,0,0,1,48,4.5h2A4.505,4.505,0,0,1,54.5,9v4A4.505,4.505,0,0,1,50,17.5Zm-2-12A3.5,3.5,0,0,0,44.5,9v4A3.5,3.5,0,0,0,48,16.5h2A3.5,3.5,0,0,0,53.5,13V9A3.5,3.5,0,0,0,50,5.5Z" fill="#212a41" data-original="#212a41" style=""/><path xmlns="http://www.w3.org/2000/svg" d="M42,30.5a.5.5,0,0,1-.5-.5V23a.5.5,0,0,1,1,0v7A.5.5,0,0,1,42,30.5Z" fill="#212a41" data-original="#212a41" style=""/><path xmlns="http://www.w3.org/2000/svg" d="M49,30.5a.5.5,0,0,1-.5-.5V24a.5.5,0,0,1,1,0v6A.5.5,0,0,1,49,30.5Z" fill="#212a41" data-original="#212a41" style=""/><path xmlns="http://www.w3.org/2000/svg" d="M50,5v5a2,2,0,0,0,2,2h2V7a2,2,0,0,0-2-2Z" fill="#6c696f" data-original="#6c696f" style=""/><path xmlns="http://www.w3.org/2000/svg" d="M54,12.5H52A2.5,2.5,0,0,1,49.5,10V5a.5.5,0,0,1,.5-.5h2A2.5,2.5,0,0,1,54.5,7v5A.5.5,0,0,1,54,12.5Zm-3.5-7V10A1.5,1.5,0,0,0,52,11.5h1.5V7A1.5,1.5,0,0,0,52,5.5Z" fill="#212a41" data-original="#212a41" style=""/><path xmlns="http://www.w3.org/2000/svg" d="M43,4V7a2,2,0,0,0,2,2h7V6a2,2,0,0,0-2-2Z" fill="#4e4b51" data-original="#4e4b51" style=""/><path xmlns="http://www.w3.org/2000/svg" d="M52,9.5H45A2.5,2.5,0,0,1,42.5,7V4a.5.5,0,0,1,.5-.5h7A2.5,2.5,0,0,1,52.5,6V9A.5.5,0,0,1,52,9.5Zm-8.5-5V7A1.5,1.5,0,0,0,45,8.5h6.5V6A1.5,1.5,0,0,0,50,4.5Z" fill="#212a41" data-original="#212a41" style=""/><path xmlns="http://www.w3.org/2000/svg" d="M30.5,26h2a1,1,0,0,1,1,1v2a1,1,0,0,1-1,1h-2a0,0,0,0,1,0,0V26A0,0,0,0,1,30.5,26Z" transform="translate(64 56) rotate(-180)" fill="#e0c8a4" data-original="#e0c8a4" style=""/><path xmlns="http://www.w3.org/2000/svg" d="M33.5,30.5h-2A1.5,1.5,0,0,1,30,29V27a1.5,1.5,0,0,1,1.5-1.5h2a.5.5,0,0,1,.5.5v4A.5.5,0,0,1,33.5,30.5Zm-2-4a.5.5,0,0,0-.5.5v2a.5.5,0,0,0,.5.5H33v-3Z" fill="#212a41" data-original="#212a41" style=""/><path xmlns="http://www.w3.org/2000/svg" d="M49,24.5a.5.5,0,0,1-.312-.109l-5-4a.5.5,0,0,1-.1-.668l2-3a.509.509,0,0,1,.462-.221.5.5,0,0,1,.413.3l3,7a.5.5,0,0,1-.459.7Zm-4.33-4.6,3.084,2.467L45.9,18.045Z" fill="#212a41" data-original="#212a41" style=""/><path xmlns="http://www.w3.org/2000/svg" d="M49,24.5a.5.5,0,0,1-.459-.7l3-7a.5.5,0,0,1,.413-.3.506.506,0,0,1,.462.221l2,3a.5.5,0,0,1-.1.668l-5,4A.5.5,0,0,1,49,24.5Zm3.1-6.455-1.85,4.318L53.33,19.9Z" fill="#212a41" data-original="#212a41" style=""/><path xmlns="http://www.w3.org/2000/svg" d="M6,34.25a.5.5,0,0,1-.5-.5V23a.5.5,0,0,1,1,0V33.75A.5.5,0,0,1,6,34.25Z" fill="#1e97c6" data-original="#1e97c6" style="" class=""/><path xmlns="http://www.w3.org/2000/svg" d="M38,53V49a6,6,0,0,1,6-6H54a6,6,0,0,1,6,6v2a2,2,0,0,1-2,2H56v7H42V57H33.5V53Z" fill="#d32e5e" data-original="#d32e5e" style=""/><path xmlns="http://www.w3.org/2000/svg" d="M56,60.5H42a.5.5,0,0,1-.5-.5V57.5h-8A.5.5,0,0,1,33,57V53a.5.5,0,0,1,.5-.5h4V49A6.508,6.508,0,0,1,44,42.5H54A6.508,6.508,0,0,1,60.5,49v2A2.5,2.5,0,0,1,58,53.5H56.5V60A.5.5,0,0,1,56,60.5Zm-13.5-1h13V53a.5.5,0,0,1,.5-.5h2A1.5,1.5,0,0,0,59.5,51V49A5.506,5.506,0,0,0,54,43.5H44A5.506,5.506,0,0,0,38.5,49v4a.5.5,0,0,1-.5.5H34v3h8a.5.5,0,0,1,.5.5Z" fill="#212a41" data-original="#212a41" style=""/><rect xmlns="http://www.w3.org/2000/svg" x="44" y="31" width="10" height="12" rx="4" ry="4" transform="translate(98 74) rotate(-180)" fill="#e0c8a4" data-original="#e0c8a4" style=""/><path xmlns="http://www.w3.org/2000/svg" d="M50,43.5H48A4.505,4.505,0,0,1,43.5,39V35A4.505,4.505,0,0,1,48,30.5h2A4.505,4.505,0,0,1,54.5,35v4A4.505,4.505,0,0,1,50,43.5Zm-2-12A3.5,3.5,0,0,0,44.5,35v4A3.5,3.5,0,0,0,48,42.5h2A3.5,3.5,0,0,0,53.5,39V35A3.5,3.5,0,0,0,50,31.5Z" fill="#212a41" data-original="#212a41" style=""/><path xmlns="http://www.w3.org/2000/svg" d="M42,57.5a.5.5,0,0,1-.5-.5V49a.5.5,0,0,1,1,0v8A.5.5,0,0,1,42,57.5Z" fill="#212a41" data-original="#212a41" style=""/><path xmlns="http://www.w3.org/2000/svg" d="M46,31v6a2,2,0,0,0,2,2h6V33a2,2,0,0,0-2-2Z" fill="#6c696f" data-original="#6c696f" style=""/><path xmlns="http://www.w3.org/2000/svg" d="M54,39.5H48A2.5,2.5,0,0,1,45.5,37V31a.5.5,0,0,1,.5-.5h6A2.5,2.5,0,0,1,54.5,33v6A.5.5,0,0,1,54,39.5Zm-7.5-8V37A1.5,1.5,0,0,0,48,38.5h5.5V33A1.5,1.5,0,0,0,52,31.5Z" fill="#212a41" data-original="#212a41" style=""/><path xmlns="http://www.w3.org/2000/svg" d="M43,30v3a2,2,0,0,0,2,2h9V32a2,2,0,0,0-2-2Z" fill="#4e4b51" data-original="#4e4b51" style=""/><path xmlns="http://www.w3.org/2000/svg" d="M54,35.5H45A2.5,2.5,0,0,1,42.5,33V30a.5.5,0,0,1,.5-.5h9A2.5,2.5,0,0,1,54.5,32v3A.5.5,0,0,1,54,35.5Zm-10.5-5V33A1.5,1.5,0,0,0,45,34.5h8.5V32A1.5,1.5,0,0,0,52,30.5Z" fill="#212a41" data-original="#212a41" style=""/><path xmlns="http://www.w3.org/2000/svg" d="M56.5,35.5h2a1,1,0,0,1,1,1v2a1,1,0,0,1-1,1h-2a0,0,0,0,1,0,0v-4A0,0,0,0,1,56.5,35.5Z" transform="translate(20.5 95.5) rotate(-90)" fill="#e0c8a4" data-original="#e0c8a4" style=""/><path xmlns="http://www.w3.org/2000/svg" d="M60,39.5H56a.5.5,0,0,1-.5-.5V37A1.5,1.5,0,0,1,57,35.5h2A1.5,1.5,0,0,1,60.5,37v2A.5.5,0,0,1,60,39.5Zm-3.5-1h3V37a.5.5,0,0,0-.5-.5H57a.5.5,0,0,0-.5.5Z" fill="#212a41" data-original="#212a41" style=""/><path xmlns="http://www.w3.org/2000/svg" d="M56,30.5a.5.5,0,0,1-.5-.5V23a.5.5,0,0,1,1,0v7A.5.5,0,0,1,56,30.5Z" fill="#212a41" data-original="#212a41" style=""/><path xmlns="http://www.w3.org/2000/svg" d="M8,30.5a.5.5,0,0,1-.5-.5V23a.5.5,0,0,1,1,0v7A.5.5,0,0,1,8,30.5Z" fill="#212a41" data-original="#212a41" style=""/><path xmlns="http://www.w3.org/2000/svg" d="M58,34.5a.5.5,0,0,1-.5-.5V23a.5.5,0,0,1,1,0V34A.5.5,0,0,1,58,34.5Z" fill="#db8e11" data-original="#db8e11" style=""/><path xmlns="http://www.w3.org/2000/svg" d="M56,53.5a.5.5,0,0,1-.5-.5V49.223a.5.5,0,0,1,1,0V53A.5.5,0,0,1,56,53.5Z" fill="#212a41" data-original="#212a41" style=""/><rect xmlns="http://www.w3.org/2000/svg" x="4" y="39" width="4" height="10" fill="#b7c0d7" data-original="#b7c0d7" style=""/><path xmlns="http://www.w3.org/2000/svg" d="M8,49.5H4a.5.5,0,0,1-.5-.5V39a.5.5,0,0,1,.5-.5H8a.5.5,0,0,1,.5.5V49A.5.5,0,0,1,8,49.5Zm-3.5-1h3v-9h-3Z" fill="#212a41" data-original="#212a41" style=""/><path xmlns="http://www.w3.org/2000/svg" d="M26,53V49a6,6,0,0,0-6-6H10a6,6,0,0,0-6,6v2a2,2,0,0,0,2,2H8v7H22V57h8.5V53Z" fill="#b7c0d7" data-original="#b7c0d7" style=""/><path xmlns="http://www.w3.org/2000/svg" d="M22,60.5H8a.5.5,0,0,1-.5-.5V53.5H6A2.5,2.5,0,0,1,3.5,51V49A6.508,6.508,0,0,1,10,42.5H20A6.508,6.508,0,0,1,26.5,49v3.5h4a.5.5,0,0,1,.5.5v4a.5.5,0,0,1-.5.5h-8V60A.5.5,0,0,1,22,60.5Zm-13.5-1h13V57a.5.5,0,0,1,.5-.5h8v-3H26a.5.5,0,0,1-.5-.5V49A5.506,5.506,0,0,0,20,43.5H10A5.506,5.506,0,0,0,4.5,49v2A1.5,1.5,0,0,0,6,52.5H8a.5.5,0,0,1,.5.5Z" fill="#212a41" data-original="#212a41" style=""/><rect xmlns="http://www.w3.org/2000/svg" x="10" y="31" width="10" height="12" rx="4" ry="4" fill="#e0c8a4" data-original="#e0c8a4" style=""/><path xmlns="http://www.w3.org/2000/svg" d="M16,43.5H14A4.505,4.505,0,0,1,9.5,39V35A4.505,4.505,0,0,1,14,30.5h2A4.505,4.505,0,0,1,20.5,35v4A4.505,4.505,0,0,1,16,43.5Zm-2-12A3.5,3.5,0,0,0,10.5,35v4A3.5,3.5,0,0,0,14,42.5h2A3.5,3.5,0,0,0,19.5,39V35A3.5,3.5,0,0,0,16,31.5Z" fill="#212a41" data-original="#212a41" style=""/><path xmlns="http://www.w3.org/2000/svg" d="M22,57.5a.5.5,0,0,1-.5-.5V49a.5.5,0,0,1,1,0v8A.5.5,0,0,1,22,57.5Z" fill="#212a41" data-original="#212a41" style=""/><path xmlns="http://www.w3.org/2000/svg" d="M18,31v6a2,2,0,0,1-2,2H10V33a2,2,0,0,1,2-2Z" fill="#4e4b51" data-original="#4e4b51" style=""/><path xmlns="http://www.w3.org/2000/svg" d="M16,39.5H10a.5.5,0,0,1-.5-.5V33A2.5,2.5,0,0,1,12,30.5h6a.5.5,0,0,1,.5.5v6A2.5,2.5,0,0,1,16,39.5Zm-5.5-1H16A1.5,1.5,0,0,0,17.5,37V31.5H12A1.5,1.5,0,0,0,10.5,33Z" fill="#212a41" data-original="#212a41" style=""/><path xmlns="http://www.w3.org/2000/svg" d="M21,30v3a2,2,0,0,1-2,2H10V32a2,2,0,0,1,2-2Z" fill="#6c696f" data-original="#6c696f" style=""/><path xmlns="http://www.w3.org/2000/svg" d="M19,35.5H10a.5.5,0,0,1-.5-.5V32A2.5,2.5,0,0,1,12,29.5h9a.5.5,0,0,1,.5.5v3A2.5,2.5,0,0,1,19,35.5Zm-8.5-1H19A1.5,1.5,0,0,0,20.5,33V30.5H12A1.5,1.5,0,0,0,10.5,32Z" fill="#212a41" data-original="#212a41" style=""/><path xmlns="http://www.w3.org/2000/svg" d="M4.5,35.5h2a1,1,0,0,1,1,1v2a1,1,0,0,1-1,1h-2a0,0,0,0,1,0,0v-4A0,0,0,0,1,4.5,35.5Z" transform="translate(-31.5 43.5) rotate(-90)" fill="#e0c8a4" data-original="#e0c8a4" style=""/><path xmlns="http://www.w3.org/2000/svg" d="M8,39.5H4a.5.5,0,0,1-.5-.5V37A1.5,1.5,0,0,1,5,35.5H7A1.5,1.5,0,0,1,8.5,37v2A.5.5,0,0,1,8,39.5Zm-3.5-1h3V37a.5.5,0,0,0-.5-.5H5a.5.5,0,0,0-.5.5Z" fill="#212a41" data-original="#212a41" style=""/><path xmlns="http://www.w3.org/2000/svg" d="M30.5,53h2a1,1,0,0,1,1,1v2a1,1,0,0,1-1,1h-2a0,0,0,0,1,0,0V53A0,0,0,0,1,30.5,53Z" fill="#e0c8a4" data-original="#e0c8a4" style=""/><path xmlns="http://www.w3.org/2000/svg" d="M32.5,57.5h-2A.5.5,0,0,1,30,57V53a.5.5,0,0,1,.5-.5h2A1.5,1.5,0,0,1,34,54v2A1.5,1.5,0,0,1,32.5,57.5Zm-1.5-1h1.5A.5.5,0,0,0,33,56V54a.5.5,0,0,0-.5-.5H31Z" fill="#212a41" data-original="#212a41" style=""/><path xmlns="http://www.w3.org/2000/svg" d="M8,53.5a.5.5,0,0,1-.5-.5V49.223a.5.5,0,0,1,1,0V53A.5.5,0,0,1,8,53.5Z" fill="#212a41" data-original="#212a41" style=""/><path xmlns="http://www.w3.org/2000/svg" d="M10,58.5a.5.5,0,0,1-.5-.5V49a.5.5,0,0,1,1,0v9A.5.5,0,0,1,10,58.5Z" fill="#d5def5" data-original="#d5def5" style=""/><path xmlns="http://www.w3.org/2000/svg" d="M54,58.5a.5.5,0,0,1-.5-.5V49a.5.5,0,0,1,1,0v9A.5.5,0,0,1,54,58.5Z" fill="#b51040" data-original="#b51040" style=""/></g></svg>
