<?xml version="1.0"?>
<svg xmlns="http://www.w3.org/2000/svg" xmlns:xlink="http://www.w3.org/1999/xlink" xmlns:svgjs="http://svgjs.com/svgjs" version="1.1" width="512" height="512" x="0" y="0" viewBox="0 0 503.924 503.924" style="enable-background:new 0 0 512 512" xml:space="preserve" class=""><g><circle xmlns="http://www.w3.org/2000/svg" cx="252.962" cy="251.962" fill="#626262" r="241.962" data-original="#8aa8bd" style="" class=""/><circle xmlns="http://www.w3.org/2000/svg" cx="252.226" cy="251.962" fill="#626262" r="192.552" data-original="#e8e7e9" style="" class=""/><g xmlns="http://www.w3.org/2000/svg" fill="#b9f4fb"><path d="m275.195 278.798-109.551 93.765c24.39 17.488 54.283 27.788 86.584 27.788 12.173 0 24-1.473 35.324-4.231v-144.525 144.525c34.876-8.495 64.934-29.279 85.331-57.511l-93.821-109.617c12.686 14.822 10.955 37.121-3.867 49.806z" fill="#626262" data-original="#b9f4fb" style="" class=""/><path d="m225.389 274.931-94.107-109.951c-17.501 24.395-27.81 54.3-27.81 86.614 0 12.189 1.477 24.031 4.242 35.368l144.135.324-144.135-.324c8.545 35.035 29.49 65.207 57.93 85.6l109.551-93.765c-14.821 12.687-37.12 10.956-49.806-3.866z" fill="#626262" data-original="#b9f4fb" style="" class=""/><path d="m216.905 107.069c-35.041 8.535-65.221 29.474-85.622 57.911l94.107 109.951c-12.686-14.821-10.954-37.12 3.867-49.806s37.12-10.954 49.806 3.867l93.821 109.617c17.677-24.468 28.102-54.522 28.102-87.014 0-12.138-1.465-23.933-4.208-35.227l-144.552.27 144.552-.27c-8.477-34.905-29.262-64.991-57.505-85.406l-112.959 96.682 112.959-96.682c-24.474-17.69-54.539-28.124-87.044-28.124-12.173 0-24 1.473-35.324 4.231v21.888" fill="#626262" data-original="#b9f4fb" style="" class=""/><path d="m216.905 208.541v46.927" fill="#626262" data-original="#b9f4fb" style="" class=""/></g><ellipse xmlns="http://www.w3.org/2000/svg" cx="252.226" cy="251.962" fill="#626262" rx="35.324" ry="35.324" transform="matrix(.76 -.65 .65 .76 -103.233 224.55)" data-original="#ffffff" style="" class=""/><path xmlns="http://www.w3.org/2000/svg" d="m430.126 73.798c-47.589-47.589-110.863-73.798-178.164-73.798s-130.575 26.209-178.164 73.798c-47.59 47.59-73.798 110.862-73.798 178.164 0 34.794 6.963 68.493 20.697 100.16 13.263 30.584 32.2 57.881 56.285 81.132 9.237 8.919 23.142-5.458 13.891-14.389-22.18-21.413-39.617-46.546-51.827-74.7-12.638-29.142-19.046-60.163-19.046-92.203 0-61.959 24.128-120.21 67.94-164.021 43.812-43.813 102.062-67.941 164.022-67.941s120.21 24.128 164.022 67.94 67.94 102.063 67.94 164.021-24.128 120.21-67.94 164.021c-43.812 43.813-102.063 67.94-164.022 67.94-33.924 0-66.613-7.154-97.16-21.265-11.655-5.389-20.06 12.764-8.387 18.156 33.194 15.334 68.705 23.108 105.546 23.108 67.301 0 130.575-26.209 178.164-73.798 47.589-47.59 73.798-110.862 73.798-178.164s-26.208-130.571-73.797-178.161z" fill="#ffffff" data-original="#000000" style="" class=""/><path xmlns="http://www.w3.org/2000/svg" d="m251.962 454.514c111.688 0 202.552-90.864 202.552-202.552s-90.865-202.553-202.552-202.553-202.552 90.865-202.552 202.553 90.864 202.552 202.552 202.552zm0-385.105c100.66 0 182.552 81.893 182.552 182.553 0 100.659-81.893 182.552-182.552 182.552s-182.552-81.893-182.552-182.552c0-100.66 81.892-182.553 182.552-182.553z" fill="#ffffff" data-original="#000000" style="" class=""/><path xmlns="http://www.w3.org/2000/svg" d="m159.553 380.689c27.062 19.405 59.018 29.662 92.412 29.662 12.702 0 25.379-1.519 37.678-4.513.004-.001.009-.002.013-.003 36.572-8.908 68.915-30.703 91.07-61.37 19.624-27.163 29.996-59.277 29.996-92.871 0-12.666-1.509-25.306-4.486-37.568-.001-.007-.003-.013-.004-.02-8.889-36.6-30.682-68.971-61.364-91.149-.007-.005-.015-.011-.022-.016-27.166-19.63-59.281-30.004-92.88-30.004-50.808 0-99.459 25.038-129.072 66.313-19.42 27.07-29.685 59.036-29.685 92.443 0 12.72 1.521 25.41 4.523 37.721.001.006.002.012.004.018 8.964 36.757 30.918 69.201 61.817 91.357zm82.94-105.232c-5.321-2.137-9.91-6.209-12.692-11.236-9.803-17.71 4.975-39.708 25.058-37.401 13.309 1.535 23.389 13.737 22.351 27.101-.523 6.744-3.642 12.88-8.781 17.278-7.14 5.978-17.275 7.736-25.936 4.258zm9.472 114.895c-24.845 0-48.775-6.493-69.929-18.882l95.253-81.527v98.094c-8.335 1.537-16.822 2.315-25.324 2.315zm107.793-51.39c-16.386 20.194-38.063 35.373-62.469 43.808v-116.795zm-69.873-112.396 98.542-.184c5.997 32.65.034 67.019-16.866 95.611zm93.297-20.173-117.18.219 73.358-62.787c20.215 16.411 35.4 38.125 43.822 62.568zm-176.541-85.974v8.538c0 12.84 20 12.859 20 0v-13.804c32.696-6.034 67.124-.069 95.756 16.865l-95.756 81.956v-5.434c0-12.84-20-12.859-20 0v29.415l-62.779-73.349c16.422-20.387 38.209-35.699 62.779-44.187zm-93.433 131.176c0-24.857 6.5-48.799 18.901-69.961l81.796 95.567-98.37-.22c-1.546-8.354-2.327-16.862-2.327-25.386zm51.797 108.126c-20.381-16.408-35.692-38.177-44.19-62.728l117.171.263z" fill="#ffffff" data-original="#000000" style="" class=""/><path xmlns="http://www.w3.org/2000/svg" d="m123.515 449.164c-3.361-8.062-15.116-8.049-18.46 0-1.633 3.93-.529 8.619 2.7 11.398 3.237 2.785 8.002 3.189 11.667 1.003 4.214-2.513 5.944-7.88 4.093-12.401z" fill="#ffffff" data-original="#000000" style="" class=""/><path xmlns="http://www.w3.org/2000/svg" d="m216.365 178.604c9.521 0 13.586-12.713 5.752-18.18-7.401-5.164-17.619 1.737-15.46 10.557 1.079 4.41 5.163 7.623 9.708 7.623z" fill="#ffffff" data-original="#000000" style="" class=""/></g></svg>
