<svg id="bold" enable-background="new 0 0 24 24" height="512" viewBox="0 0 24 24" width="512" xmlns="http://www.w3.org/2000/svg"><path d="m17.5 11c-3.584 0-6.5 2.916-6.5 6.5s2.916 6.5 6.5 6.5 6.5-2.916 6.5-6.5-2.916-6.5-6.5-6.5zm2.5 7.5h-1.5v1.5c0 .552-.448 1-1 1s-1-.448-1-1v-1.5h-1.5c-.552 0-1-.448-1-1s.448-1 1-1h1.5v-1.5c0-.552.448-1 1-1s1 .448 1 1v1.5h1.5c.552 0 1 .448 1 1s-.448 1-1 1z"/><path d="m17 5.958v-3.958c0-.552-.448-1-1-1s-1 .448-1 1v2.002l-3.801-3.717c-.389-.38-1.01-.379-1.398 0l-9.358 9.148c-.281.281-.443.671-.443 1.067 0 .827.673 1.5 1.5 1.5h1.5v5.5c0 1.378 1.122 2.5 2.5 2.5h2.5c.552 0 1-.448 1-1s-.448-1-1-1h-2.5c-.276 0-.5-.224-.5-.5v-6.5c0-.552-.448-1-1-1h-1.276l7.776-7.602 6.551 6.406c.396.387 1.028.379 1.414-.016s.379-1.028-.016-1.414z"/></svg>