<?xml version="1.0"?>
<svg xmlns="http://www.w3.org/2000/svg" xmlns:xlink="http://www.w3.org/1999/xlink" xmlns:svgjs="http://svgjs.com/svgjs" version="1.1" width="512" height="512" x="0" y="0" viewBox="0 0 512 511" style="enable-background:new 0 0 512 512" xml:space="preserve" class=""><g><path xmlns="http://www.w3.org/2000/svg" d="m512 477.476562c0 19.332032-15.671875 35-35 35-11.890625 0-22.390625-5.933593-28.714844-15h-162.570312c-6.324219 9.066407-16.824219 15-28.714844 15s-22.390625-5.933593-28.714844-15h-164.570312c-6.324219 9.066407-16.824219 15-28.714844 15-19.328125 0-35-15.667968-35-35 0-19.328124 15.671875-35 35-35 11.890625 0 22.390625 5.9375 28.714844 15h59.492187c-13.132812-8.757812-25.496093-18.878906-36.910156-30.292968-38.050781-38.046875-61.742187-86.625-68.375-139.15625-10.691406-5.992188-17.921875-17.421875-17.921875-30.550782 0-19.328124 15.671875-35 35-35s35 15.671876 35 35c0 10.632813-4.746094 20.152344-12.230469 26.570313 11.882813 89.125 82.675781 159.871094 171.816407 171.683594 6.414062-8.070313 16.304687-13.253907 27.414062-13.253907 10.996094 0 20.800781 5.074219 27.214844 13 88.292968-12.523437 158.214844-82.910156 170.015625-171.429687-7.484375-6.417969-12.230469-15.9375-12.230469-26.570313 0-19.328124 15.671875-35 35-35s35 15.671876 35 35c0 13.128907-7.230469 24.558594-17.921875 30.550782-6.632813 52.53125-30.324219 101.109375-68.371094 139.15625-11.417969 11.414062-23.78125 21.535156-36.914062 30.292968h59.492187c6.324219-9.0625 16.824219-15 28.714844-15 19.328125 0 35 15.671876 35 35zm-325.421875-166.945312c-6.363281-12.679688-9.585937-27.117188-9.578125-42.910156v-187.621094c0-43.828125 35.65625-79.492188 79.484375-79.5h.015625c21.234375 0 41.191406 8.265625 56.210938 23.277344 15.019531 15.019531 23.289062 34.984375 23.289062 56.222656v14.476562c0 11.046876-8.953125 20-20 20-1.734375 0-3.40625-.242187-5.011719-.65625-1.523437.375-3.109375.59375-4.753906.59375l-89.234375.058594v148l79-.050781v-67.945313c0-11.042968 8.953125-20 20-20s20 8.957032 20 20v73.09375c-.007812 15.90625-3.222656 30.339844-9.550781 42.921876-.28125.5625-.59375 1.113281-.929688 1.648437l-52.117187 82.976563c-3.660156 5.824218-10.058594 9.359374-16.9375 9.359374h-.003906c-6.882813 0-13.28125-3.539062-16.9375-9.371093l-52.011719-82.917969c-.339844-.539062-.648438-1.089844-.933594-1.65625zm97.808594-8.101562-55.757813.035156 27.847656 44.394531zm-66.992188-227.957032 78.210938-.050781c-1.183594-8.4375-5.046875-16.226563-11.175781-22.355469-7.460938-7.457031-17.378907-11.566406-27.929688-11.566406-.003906 0-.003906 0-.007812 0-19.898438.003906-36.398438 14.804688-39.097657 33.972656zm0 0" fill="#f3ab00" data-original="#000000" style="" class=""/></g></svg>
