<?xml version="1.0"?>
<svg xmlns="http://www.w3.org/2000/svg" xmlns:xlink="http://www.w3.org/1999/xlink" xmlns:svgjs="http://svgjs.com/svgjs" version="1.1" width="512" height="512" x="0" y="0" viewBox="0 0 512 512" style="enable-background:new 0 0 512 512" xml:space="preserve" class=""><g><g xmlns="http://www.w3.org/2000/svg"><g><g><g><path d="m352.076 16c-5.531-.004-26.558.003-32 0-18.032-.012-34.669 5.945-48.054 15.998-13.384-10.053-30.022-16.01-48.054-15.998-5.442.003-26.469-.004-32 0-45.449.03-81.195 38.532-79.889 83.962 2.686 93.478 99.776 152.692 128.2 168.053 4.839 2.615 10.243 3.985 15.743 3.985h32s10.905-1.37 15.743-3.985c28.424-15.36 125.514-74.575 128.2-168.053 1.306-45.43-34.44-83.932-79.889-83.962z" fill="#8b0000" data-original="#faa019" style="" class=""/></g></g><g><g><path d="m320.076 16c-26.192-.017-49.444 12.557-64.054 31.99-14.61-19.433-37.862-32.007-64.054-31.99-45.449.03-81.195 38.532-79.889 83.962 2.686 93.478 99.776 152.693 128.2 168.053 4.839 2.615 10.243 3.985 15.743 3.985 5.5 0 10.904-1.37 15.743-3.985 28.424-15.36 125.514-74.575 128.2-168.053 1.306-45.43-34.44-83.932-79.889-83.962z" fill="#c30000" data-original="#ffd205" style="" class=""/></g></g></g><g><g><circle cx="256.044" cy="144" fill="#c30000" r="80" data-original="#d7e6f0" style="" class=""/></g></g><g><g><path d="m304.044 144c0-2.997-.276-5.93-.801-8.775l9.299-5.369c3.826-2.209 5.137-7.102 2.928-10.928l-8-13.856c-2.209-3.826-7.102-5.137-10.928-2.928l-9.305 5.373c-4.437-3.797-9.574-6.799-15.192-8.785v-10.732c0-4.418-3.582-8-8-8h-16c-4.418 0-8 3.582-8 8v10.731c-5.618 1.986-10.755 4.988-15.192 8.785l-9.305-5.373c-3.826-2.209-8.719-.898-10.928 2.928l-8 13.856c-2.209 3.826-.898 8.719 2.928 10.928l9.299 5.369c-.526 2.845-.801 5.778-.801 8.775s.276 5.93.801 8.775l-9.299 5.369c-3.826 2.209-5.137 7.102-2.928 10.928l8 13.856c2.209 3.826 7.102 5.137 10.928 2.928l9.305-5.373c4.437 3.797 9.574 6.799 15.192 8.785v10.733c0 4.418 3.582 8 8 8h16c4.418 0 8-3.582 8-8v-10.731c5.618-1.986 10.755-4.988 15.192-8.785l9.305 5.373c3.826 2.209 8.719.898 10.928-2.928l8-13.856c2.209-3.826.898-8.719-2.928-10.928l-9.299-5.369c.526-2.846.801-5.779.801-8.776zm-48 24c-13.255 0-24-10.745-24-24s10.745-24 24-24 24 10.745 24 24-10.745 24-24 24z" fill="#8b8b8b" data-original="#9b5faa" style="" class=""/></g></g><g><g><g><path d="m432 208h-304v288h160v-48h96c35.346 0 64-28.654 64-64v-160c0-8.836-7.164-16-16-16z" fill="#fab991" data-original="#fab991" style="" class=""/></g></g><g><g><path d="m376 400h16c13.255 0 24-10.745 24-24h-64c0 13.255 10.745 24 24 24z" fill="#463c4b" data-original="#463c4b" style="" class=""/></g></g><g><g><path d="m112 208c-8.836 0-16 7.164-16 16v160c0 17.673 14.327 32 32 32h80c17.673 0 32-14.327 32-32v-80c26.51 0 48-21.49 48-48v-48z" fill="#463c4b" data-original="#463c4b" style="" class=""/></g></g><g><g><path d="m240 256c-26.51 0-48 21.49-48 48s21.49 48 48 48z" fill="#f0915a" data-original="#f0915a" style=""/></g></g><g><g><path d="m288 496h-160c0-26.51 21.49-48 48-48h112z" fill="#f0915a" data-original="#f0915a" style=""/></g></g><g><g><path d="m400 352c-13.255 0-24-10.745-24-24v-56c26.51 0 48 21.49 48 48v8c0 13.255-10.745 24-24 24z" fill="#f0915a" data-original="#f0915a" style=""/></g></g><g><g><circle cx="416" cy="256" fill="#463c4b" r="16" data-original="#463c4b" style="" class=""/></g></g><g><g><circle cx="336" cy="256" fill="#463c4b" r="16" data-original="#463c4b" style="" class=""/></g></g></g></g></g></svg>
