<?xml version="1.0"?>
<svg xmlns="http://www.w3.org/2000/svg" xmlns:xlink="http://www.w3.org/1999/xlink" xmlns:svgjs="http://svgjs.com/svgjs" version="1.1" width="512" height="512" x="0" y="0" viewBox="0 0 512.004 512.004" style="enable-background:new 0 0 512 512" xml:space="preserve" class=""><g>
<g xmlns="http://www.w3.org/2000/svg">
	<g>
		<path style="" d="M332.8,230.404c-4.713,0-8.533-3.821-8.533-8.533v-25.6c0-4.713,3.82-8.533,8.533-8.533    s8.533,3.821,8.533,8.533v25.6C341.333,226.583,337.513,230.404,332.8,230.404z" fill="#a9a8a7" data-original="#2c3e50" class=""/>
		<path style="" d="M290.138,247.47c-3.236,0.004-6.195-1.822-7.642-4.717l-8.533-17.067    c-2.094-4.214-0.383-9.328,3.826-11.432c4.209-2.104,9.327-0.405,11.441,3.799l8.533,17.067c1.323,2.644,1.182,5.784-0.371,8.3    C295.84,245.936,293.095,247.468,290.138,247.47z" fill="#a9a8a7" data-original="#2c3e50" class=""/>
	</g>
	<g>
		<path style="" d="M349.867,170.67c-4.713,0-8.533-3.821-8.533-8.533v-59.733c0-4.713,3.821-8.533,8.533-8.533    c4.713,0,8.533,3.821,8.533,8.533v59.733C358.4,166.85,354.579,170.67,349.867,170.67z" fill="#f3ab00" data-original="#2fa8cc" class=""/>
		<path style="" d="M162.133,170.67c-4.713,0-8.533-3.821-8.533-8.533v-59.733c0-4.713,3.821-8.533,8.533-8.533    s8.533,3.821,8.533,8.533v59.733C170.667,166.85,166.846,170.67,162.133,170.67z" fill="#f3ab00" data-original="#2fa8cc" class=""/>
		<path style="" d="M366.933,128.004c-2.264,0.003-4.435-0.897-6.033-2.5l-11.034-11.033l-11.034,11.034    c-3.338,3.296-8.711,3.279-12.029-0.038c-3.317-3.317-3.334-8.691-0.038-12.029l17.067-17.067c1.6-1.601,3.77-2.5,6.033-2.5    s4.434,0.899,6.033,2.5l17.067,17.067c2.44,2.441,3.169,6.11,1.849,9.299C373.495,125.924,370.384,128.003,366.933,128.004z" fill="#f3ab00" data-original="#2fa8cc" class=""/>
		<path style="" d="M256,93.87c-4.713,0-8.533-3.821-8.533-8.533V25.604c0-4.713,3.821-8.533,8.533-8.533    c4.713,0,8.533,3.821,8.533,8.533v59.733C264.533,90.05,260.713,93.87,256,93.87z" fill="#f3ab00" data-original="#2fa8cc" class=""/>
		<path style="" d="M273.067,51.204c-2.264,0.003-4.435-0.897-6.033-2.5L256,37.67l-11.034,11.033    c-3.341,3.281-8.701,3.256-12.012-0.054c-3.311-3.311-3.335-8.671-0.054-12.012l17.067-17.067c1.6-1.601,3.77-2.5,6.033-2.5    c2.263,0,4.433,0.899,6.033,2.5L279.1,36.637c2.44,2.441,3.169,6.11,1.849,9.299C279.629,49.124,276.518,51.203,273.067,51.204z" fill="#f3ab00" data-original="#2fa8cc" class=""/>
		<path style="" d="M179.2,128.004c-2.264,0.003-4.435-0.897-6.033-2.5l-11.034-11.033L151.1,125.504    c-3.338,3.296-8.711,3.279-12.029-0.038c-3.317-3.317-3.334-8.691-0.038-12.029L156.1,96.371c1.6-1.601,3.77-2.5,6.033-2.5    c2.263,0,4.433,0.899,6.033,2.5l17.067,17.067c2.44,2.441,3.169,6.11,1.849,9.299C185.762,125.924,182.651,128.003,179.2,128.004z    " fill="#f3ab00" data-original="#2fa8cc" class=""/>
	</g>
	<g>
		<path style="" d="M391.933,247.554c-2.938,0-5.669-1.511-7.229-4s-1.73-5.606-0.45-8.25L495.783,4.82    c2.053-4.243,7.157-6.019,11.4-3.967c4.243,2.053,6.019,7.157,3.967,11.4L399.621,242.737    C398.194,245.684,395.208,247.556,391.933,247.554z" fill="#c03a2b" data-original="#c03a2b" class=""/>
		<path style="" d="M8.525,512.004c-3.089-0.004-5.935-1.677-7.441-4.375s-1.436-5.998,0.182-8.629l123.138-200.108    c1.597-2.596,4.458-4.143,7.505-4.058c3.047,0.085,5.817,1.789,7.267,4.471c1.45,2.681,1.359,5.932-0.239,8.529L15.8,507.941    C14.247,510.469,11.492,512.008,8.525,512.004z" fill="#c03a2b" data-original="#c03a2b" class=""/>
	</g>
	<g>
		<path style="" d="M435.2,512.004H8.533c-4.713,0-8.533-3.821-8.533-8.533V8.537c0-4.713,3.821-8.533,8.533-8.533    s8.533,3.821,8.533,8.533v486.4H435.2c4.713,0,8.533,3.82,8.533,8.533S439.913,512.004,435.2,512.004z" fill="#a9a8a7" data-original="#2c3e50" class=""/>
		<path style="" d="M42.667,51.204c-2.264,0.003-4.435-0.897-6.033-2.5L2.5,14.57    C-0.78,11.229-0.756,5.869,2.555,2.558s8.671-3.335,12.012-0.054L48.7,36.637c2.44,2.44,3.169,6.11,1.849,9.298    C49.228,49.124,46.118,51.203,42.667,51.204z" fill="#a9a8a7" data-original="#2c3e50" class=""/>
		<path style="" d="M34.133,93.87h-25.6C3.821,93.87,0,90.05,0,85.337s3.821-8.533,8.533-8.533h25.6    c4.713,0,8.533,3.821,8.533,8.533S38.846,93.87,34.133,93.87z" fill="#a9a8a7" data-original="#2c3e50" class=""/>
		<path style="" d="M34.133,128.004h-25.6c-4.713,0-8.533-3.821-8.533-8.533c0-4.713,3.821-8.533,8.533-8.533h25.6    c4.713,0,8.533,3.821,8.533,8.533C42.667,124.183,38.846,128.004,34.133,128.004z" fill="#a9a8a7" data-original="#2c3e50" class=""/>
		<path style="" d="M34.133,162.137h-25.6c-4.713,0-8.533-3.821-8.533-8.533c0-4.713,3.821-8.533,8.533-8.533h25.6    c4.713,0,8.533,3.821,8.533,8.533C42.667,158.317,38.846,162.137,34.133,162.137z" fill="#a9a8a7" data-original="#2c3e50" class=""/>
		<path style="" d="M34.133,196.27h-25.6c-4.713,0-8.533-3.82-8.533-8.533s3.821-8.533,8.533-8.533h25.6    c4.713,0,8.533,3.821,8.533,8.533S38.846,196.27,34.133,196.27z" fill="#a9a8a7" data-original="#2c3e50" class=""/>
		<path style="" d="M34.133,230.404h-25.6c-4.713,0-8.533-3.821-8.533-8.533s3.821-8.533,8.533-8.533h25.6    c4.713,0,8.533,3.82,8.533,8.533S38.846,230.404,34.133,230.404z" fill="#a9a8a7" data-original="#2c3e50" class=""/>
		<path style="" d="M34.133,264.537h-25.6c-4.713,0-8.533-3.82-8.533-8.533c0-4.713,3.821-8.533,8.533-8.533h25.6    c4.713,0,8.533,3.821,8.533,8.533C42.667,260.717,38.846,264.537,34.133,264.537z" fill="#a9a8a7" data-original="#2c3e50" class=""/>
		<path style="" d="M34.133,298.67h-25.6C3.821,298.67,0,294.85,0,290.137s3.821-8.533,8.533-8.533h25.6    c4.713,0,8.533,3.82,8.533,8.533S38.846,298.67,34.133,298.67z" fill="#a9a8a7" data-original="#2c3e50" class=""/>
		<path style="" d="M34.133,332.804h-25.6c-4.713,0-8.533-3.821-8.533-8.533c0-4.713,3.821-8.533,8.533-8.533h25.6    c4.713,0,8.533,3.821,8.533,8.533C42.667,328.983,38.846,332.804,34.133,332.804z" fill="#a9a8a7" data-original="#2c3e50" class=""/>
		<path style="" d="M34.133,366.937h-25.6c-4.713,0-8.533-3.821-8.533-8.533c0-4.713,3.821-8.533,8.533-8.533h25.6    c4.713,0,8.533,3.821,8.533,8.533C42.667,363.117,38.846,366.937,34.133,366.937z" fill="#a9a8a7" data-original="#2c3e50" class=""/>
		<path style="" d="M153.6,512.004c-4.713,0-8.533-3.821-8.533-8.533v-17.067c0-4.713,3.821-8.533,8.533-8.533    c4.713,0,8.533,3.82,8.533,8.533v17.067C162.133,508.183,158.313,512.004,153.6,512.004z" fill="#a9a8a7" data-original="#2c3e50" class=""/>
		<path style="" d="M119.467,512.004c-4.713,0-8.533-3.821-8.533-8.533v-17.067c0-4.713,3.821-8.533,8.533-8.533    c4.713,0,8.533,3.82,8.533,8.533v17.067C128,508.183,124.18,512.004,119.467,512.004z" fill="#a9a8a7" data-original="#2c3e50" class=""/>
		<path style="" d="M85.333,512.004c-4.713,0-8.533-3.821-8.533-8.533v-17.067c0-4.713,3.821-8.533,8.533-8.533    c4.713,0,8.533,3.82,8.533,8.533v17.067C93.867,508.183,90.046,512.004,85.333,512.004z" fill="#a9a8a7" data-original="#2c3e50" class=""/>
		<path style="" d="M51.2,512.004c-4.713,0-8.533-3.821-8.533-8.533v-17.067c0-4.713,3.821-8.533,8.533-8.533    s8.533,3.82,8.533,8.533v17.067C59.733,508.183,55.913,512.004,51.2,512.004z" fill="#a9a8a7" data-original="#2c3e50" class=""/>
		<path style="" d="M187.733,512.004c-4.713,0-8.533-3.821-8.533-8.533v-17.067c0-4.713,3.821-8.533,8.533-8.533    c4.713,0,8.533,3.82,8.533,8.533v17.067C196.267,508.183,192.446,512.004,187.733,512.004z" fill="#a9a8a7" data-original="#2c3e50" class=""/>
		<path style="" d="M221.867,512.004c-4.713,0-8.533-3.821-8.533-8.533v-17.067c0-4.713,3.821-8.533,8.533-8.533    s8.533,3.82,8.533,8.533v17.067C230.4,508.183,226.58,512.004,221.867,512.004z" fill="#a9a8a7" data-original="#2c3e50" class=""/>
		<path style="" d="M256,512.004c-4.713,0-8.533-3.821-8.533-8.533v-17.067c0-4.713,3.821-8.533,8.533-8.533    c4.713,0,8.533,3.82,8.533,8.533v17.067C264.533,508.183,260.713,512.004,256,512.004z" fill="#a9a8a7" data-original="#2c3e50" class=""/>
		<path style="" d="M290.133,512.004c-4.713,0-8.533-3.821-8.533-8.533v-17.067c0-4.713,3.821-8.533,8.533-8.533    s8.533,3.82,8.533,8.533v17.067C298.667,508.183,294.846,512.004,290.133,512.004z" fill="#a9a8a7" data-original="#2c3e50" class=""/>
		<path style="" d="M324.267,512.004c-4.713,0-8.533-3.821-8.533-8.533v-17.067c0-4.713,3.821-8.533,8.533-8.533    s8.533,3.82,8.533,8.533v17.067C332.8,508.183,328.98,512.004,324.267,512.004z" fill="#a9a8a7" data-original="#2c3e50" class=""/>
		<path style="" d="M358.4,512.004c-4.713,0-8.533-3.821-8.533-8.533v-17.067c0-4.713,3.82-8.533,8.533-8.533    s8.533,3.82,8.533,8.533v17.067C366.933,508.183,363.113,512.004,358.4,512.004z" fill="#a9a8a7" data-original="#2c3e50" class=""/>
		<path style="" d="M392.533,512.004c-4.713,0-8.533-3.821-8.533-8.533v-17.067c0-4.713,3.82-8.533,8.533-8.533    s8.533,3.82,8.533,8.533v17.067C401.067,508.183,397.246,512.004,392.533,512.004z" fill="#a9a8a7" data-original="#2c3e50" class=""/>
	</g>
	<path style="" d="M224,319.241c-1.01,0-2.012-0.181-2.958-0.533l-54.954-20.313c-2.86-1.057-4.938-3.559-5.453-6.564   c-0.515-3.005,0.613-6.056,2.958-8.004c2.345-1.948,5.551-2.497,8.411-1.44l54.954,20.313c3.877,1.434,6.17,5.44,5.442,9.509   S228.134,319.24,224,319.241z" fill="#c03a2b" data-original="#c03a2b" class=""/>
	<circle style="" cx="332.8" cy="332.804" r="110.933" fill="#757b80" data-original="#2980ba" class=""/>
	<circle style="" cx="332.8" cy="332.804" r="76.8" fill="#fafeff" data-original="#9fc9d3" class=""/>
	<path style="" d="M358.4,366.937c-2.264,0.003-4.435-0.897-6.033-2.5l-25.6-25.6c-1.6-1.6-2.5-3.77-2.5-6.033v-42.667   c0-4.713,3.82-8.533,8.533-8.533s8.533,3.82,8.533,8.533v39.133l23.1,23.1c2.44,2.44,3.17,6.11,1.85,9.299   C364.962,364.857,361.851,366.937,358.4,366.937z" fill="#a9a8a7" data-original="#2c3e50" class=""/>
	<circle style="" cx="145.067" cy="281.604" r="25.6" fill="#f3ab00" data-original="#f0c419" class=""/>
</g>
<g xmlns="http://www.w3.org/2000/svg">
</g>
<g xmlns="http://www.w3.org/2000/svg">
</g>
<g xmlns="http://www.w3.org/2000/svg">
</g>
<g xmlns="http://www.w3.org/2000/svg">
</g>
<g xmlns="http://www.w3.org/2000/svg">
</g>
<g xmlns="http://www.w3.org/2000/svg">
</g>
<g xmlns="http://www.w3.org/2000/svg">
</g>
<g xmlns="http://www.w3.org/2000/svg">
</g>
<g xmlns="http://www.w3.org/2000/svg">
</g>
<g xmlns="http://www.w3.org/2000/svg">
</g>
<g xmlns="http://www.w3.org/2000/svg">
</g>
<g xmlns="http://www.w3.org/2000/svg">
</g>
<g xmlns="http://www.w3.org/2000/svg">
</g>
<g xmlns="http://www.w3.org/2000/svg">
</g>
<g xmlns="http://www.w3.org/2000/svg">
</g>
</g></svg>
