<?xml version="1.0"?>
<svg xmlns="http://www.w3.org/2000/svg" xmlns:xlink="http://www.w3.org/1999/xlink" xmlns:svgjs="http://svgjs.com/svgjs" version="1.1" width="512" height="512" x="0" y="0" viewBox="0 0 512 512" style="enable-background:new 0 0 512 512" xml:space="preserve" class=""><g><path xmlns="http://www.w3.org/2000/svg" d="m426.56 421.25v72.48h-42.36v-58.32a87.423 87.423 0 0 1 21.19-57.06l.24-.26a66.628 66.628 0 0 1 20.93 43.16z" fill="#b90000" data-original="#e75163" style="" class=""/><path xmlns="http://www.w3.org/2000/svg" d="m215.14 310.32c-.3-.15-.595-.3-.895-.46l-.245.49v55.68a72.489 72.489 0 0 0 83.955.06l.045-.06v-56.33z" fill="#efc597" data-original="#efc597" style="" class=""/><path xmlns="http://www.w3.org/2000/svg" d="m128.47 435.41v58.32h-43.03v-72.48a66.58 66.58 0 0 1 21.32-43.51 87.439 87.439 0 0 1 21.71 57.67z" fill="#b90000" data-original="#e75163" style="" class=""/><path xmlns="http://www.w3.org/2000/svg" d="m354.26 186.04-25.74 98.53a92.179 92.179 0 0 1 -113.34 25.75c-.3-.15-.6-.3-.9-.46a92.413 92.413 0 0 1 -30.6-25.1l-.14.04-25.8-98.75a18.051 18.051 0 0 1 3.25-.6l.11-.02a7.639 7.639 0 0 0 3.92 5.01s23.33 5.48 23.44 4.13l3.24-40.56a3.79 3.79 0 0 1 4.17-3.46l7.34.79a87.021 87.021 0 0 0 80.23-36.09 109.22 109.22 0 0 1 44.75 64.57l4.47 18.44 15.48-7.24a9.466 9.466 0 0 0 2.91-5.57h.02a20.355 20.355 0 0 1 3.19.59z" fill="#ffd8b7" data-original="#ffd8b7" style="" class=""/><path xmlns="http://www.w3.org/2000/svg" d="m389.98 367.16-83.17-28.16h-8.81v155h86v-58.59a87.515 87.515 0 0 1 21.29-57.06l.29-.3a66.547 66.547 0 0 0 -15.6-10.89z" fill="#9f000b" data-original="#fb6771" style="" class=""/><path xmlns="http://www.w3.org/2000/svg" d="m298.08 493.68v.05h-84.05v-127.7a72.528 72.528 0 0 0 83.98.06l.07-.06z" fill="#979ca3" data-original="#d4e1f4" style="" class=""/><path xmlns="http://www.w3.org/2000/svg" d="m122 367.23a67.541 67.541 0 0 0 -15.487 10.51 87.233 87.233 0 0 1 21.487 57.67v58.59h86v-157.81z" fill="#9f000b" data-original="#fb6771" style="" class=""/><path xmlns="http://www.w3.org/2000/svg" d="m238.613 311.8a79.952 79.952 0 0 1 -38.613-68.7v-37.343a54.659 54.659 0 0 1 6.255-25.491 53.356 53.356 0 0 1 17.515-19.5c1.627-1.089 3.355-2.165 5.137-3.214a8.543 8.543 0 0 0 4.155-8.184 8.744 8.744 0 0 0 -1.362-3.968c-.017-.025-.03-.051-.048-.077l-.027.011-56.8-2.912c-2.957 5.609-4.694 31.632-5.519 48.958-.313 6.574-.3 11.9-.3 14.376v22.115l14.701 56.929.056-.04a92.256 92.256 0 0 0 30.559 25.1c.3.16.579.31.879.46a91.706 91.706 0 0 0 40.84 9.53c.179 0 .352-.007.532-.008a79.86 79.86 0 0 1 -17.96-8.042z" fill="#e8bfa0" data-original="#e8bfa0" style=""/><path xmlns="http://www.w3.org/2000/svg" d="m256.03 49.62a97.449 97.449 0 0 1 97.22 104.16l-2.13 30.98c-.02.23-.04.46-.07.69a9.466 9.466 0 0 1 -2.91 5.57l-15.48 7.24-4.47-18.44a109.22 109.22 0 0 0 -44.75-64.57 87.021 87.021 0 0 1 -80.23 36.09l-7.34-.79a3.79 3.79 0 0 0 -4.17 3.46l-3.24 40.56c-.11 1.35-23.44-4.13-23.44-4.13a7.639 7.639 0 0 1 -3.92-5.01 7.277 7.277 0 0 1 -.19-1.24l-2.1-30.41q-.24-3.435-.24-6.82a97.461 97.461 0 0 1 97.46-97.34z" fill="#6d7486" data-original="#6d7486" style="" class=""/><path xmlns="http://www.w3.org/2000/svg" d="m329.94 345.144h-42.395v-12h42.395a13.566 13.566 0 0 0 13.551-13.551v-33.657h12v33.657a25.58 25.58 0 0 1 -25.551 25.551z" fill="#979ca3" data-original="#d4e1f4" style="" class=""/><path xmlns="http://www.w3.org/2000/svg" d="m387.89 207.59h-12v-63.431a119.89 119.89 0 0 0 -239.78 0v63.431h-12v-63.431c0-72.724 59.165-131.889 131.89-131.889s131.89 59.165 131.89 131.889z" fill="#979ca3" data-original="#d4e1f4" style="" class=""/><path xmlns="http://www.w3.org/2000/svg" d="m157.667 403.058a6 6 0 0 1 -6-6v-6.3a6 6 0 0 1 12 0v6.3a6 6 0 0 1 -6 6z" fill="#f4f8fc" data-original="#f4f8fc" style="" class=""/><path xmlns="http://www.w3.org/2000/svg" d="m157.667 468.058a6 6 0 0 1 -6-6v-46a6 6 0 0 1 12 0v46a6 6 0 0 1 -6 6z" fill="#f4f8fc" data-original="#f4f8fc" style="" class=""/><path xmlns="http://www.w3.org/2000/svg" d="m349.49 296.16-.76-.2 28.59-109.4 2.21.58c.77.2 1.53.43 2.27.7a29.011 29.011 0 0 1 18.48 34.71l-13.92 53.25a29.02 29.02 0 0 1 -35.41 20.74z" fill="#c10000" data-original="#5fa8ed" style="" class=""/><path xmlns="http://www.w3.org/2000/svg" d="m328.52 284.57 25.74-98.53h.01l1.34-5.15 21.71 5.67-28.59 109.4-21.7-5.67z" fill="#9b0000" data-original="#4689d3" style="" class=""/><path xmlns="http://www.w3.org/2000/svg" d="m157.74 186.05 25.8 98.75 1.43 5.49-21.7 5.67-28.59-109.4 21.71-5.67z" fill="#9b0000" data-original="#4689d3" style="" class=""/><path xmlns="http://www.w3.org/2000/svg" d="m134.68 186.56 28.59 109.4-2.22.58a29.02 29.02 0 0 1 -35.41-20.74l-13.92-53.25a29.011 29.011 0 0 1 18.48-34.71c.74-.27 1.5-.5 2.27-.7z" fill="#c10000" data-original="#5fa8ed" style="" class=""/><path xmlns="http://www.w3.org/2000/svg" d="m291.42 328.51v21.45a2.6 2.6 0 0 1 -2.61 2.6h-38.63a2.6 2.6 0 0 1 -2.61-2.6v-21.45a2.61 2.61 0 0 1 2.61-2.6h38.63a2.61 2.61 0 0 1 2.61 2.6z" fill="#6d7486" data-original="#6d7486" style="" class=""/></g></svg>
